<?xml version="1.0" encoding="UTF-8"?>
<svg xmlns="http://www.w3.org/2000/svg" viewBox="0 0 127.56 141.73">
  <defs>
    <style>
      .cls-1 {
        letter-spacing: 0em;
      }

      .cls-1, .cls-2, .cls-3, .cls-4, .cls-5 {
        fill: #767576;
      }

      .cls-1, .cls-2, .cls-3, .cls-5 {
        font-family: MontserratRoman-Regular, Montserrat;
        font-size: 6px;
        font-variation-settings: 'wght' 400;
      }

      .cls-2 {
        letter-spacing: 0em;
      }

      .cls-6 {
        fill: none;
      }

      .cls-6, .cls-7, .cls-8 {
        stroke: #767576;
        stroke-miterlimit: 10;
        stroke-width: .5px;
      }

      .cls-3 {
        opacity: .99;
      }

      .cls-7 {
        fill: #f7941d;
      }

      .cls-8 {
        fill: #bcbec0;
      }
    </style>
  </defs>
  <g id="scheme_w" data-name="scheme w">
    <polyline class="cls-6" points="28.67 66.38 28.67 55.57 34.16 55.57"/>
    <polyline class="cls-6" points="34.87 89.94 28.67 89.94 28.67 78.25"/>
    <polyline class="cls-6" points="35.22 100.75 28.67 100.75 28.67 112.62 34.33 112.62"/>
    <polyline class="cls-6" points="28.67 112.62 23.88 112.62 23.88 122.01 105.03 122.01 105.03 112.62 100.25 112.62"/>
    <line class="cls-6" x1="28.67" y1="66.49" x2="23.57" y2="66.49"/>
    <line class="cls-6" x1="23.48" y1="62.13" x2="23.48" y2="70.63"/>
    <line class="cls-6" x1="21.35" y1="68.5" x2="21.35" y2="64.25"/>
    <text class="cls-2" transform="translate(24.59 65.49)"><tspan x="0" y="0">+</tspan></text>
    <text class="cls-1" transform="translate(16.79 65.49)"><tspan x="0" y="0">-</tspan></text>
    <polyline class="cls-6" points="34.51 78.43 16.26 78.43 16.26 66.38 21.22 66.38"/>
    <polyline class="cls-6" points="100.25 66.38 100.25 55.57 94.76 55.57"/>
    <polyline class="cls-6" points="94.16 90.01 100.39 90.01 100.39 78.39"/>
    <polyline class="cls-6" points="93.69 100.75 100.25 100.75 100.25 112.62 94.58 112.62"/>
    <line class="cls-6" x1="100.39" y1="66.49" x2="105.21" y2="66.49"/>
    <line class="cls-6" x1="105.43" y1="62.13" x2="105.43" y2="70.63"/>
    <line class="cls-6" x1="107.56" y1="68.5" x2="107.56" y2="64.25"/>
    <text class="cls-2" transform="translate(104.36 64.78) rotate(-180) scale(1 -1)"><tspan x="0" y="0">+</tspan></text>
    <text class="cls-1" transform="translate(112.12 65.49) rotate(-180) scale(1 -1)"><tspan x="0" y="0">-</tspan></text>
    <polyline class="cls-6" points="94.4 78.43 112.65 78.43 112.65 66.38 107.69 66.38"/>
    <line class="cls-6" x1="105.03" y1="122.01" x2="105.03" y2="125.02"/>
    <line class="cls-6" x1="99.36" y1="125.02" x2="110.7" y2="125.02"/>
    <line class="cls-6" x1="102.2" y1="127.15" x2="107.87" y2="127.15"/>
    <line class="cls-6" x1="103.62" y1="129.27" x2="106.45" y2="129.27"/>
    <circle class="cls-6" cx="104.93" cy="122.04" r=".57"/>
    <line class="cls-6" x1="28.67" y1="66.49" x2="34.34" y2="66.49"/>
    <line class="cls-6" x1="100.11" y1="66.49" x2="94.44" y2="66.49"/>
  </g>
  <g id="_Точки" data-name="Точки">
    <circle class="cls-4" cx="28.66" cy="66.33" r=".57"/>
    <circle class="cls-4" cx="28.67" cy="78.39" r=".57"/>
    <ellipse class="cls-4" cx="28.66" cy="112.67" rx=".7" ry=".66"/>
    <circle class="cls-4" cx="100.25" cy="66.38" r=".57"/>
    <circle class="cls-4" cx="100.39" cy="78.39" r=".57"/>
    <ellipse class="cls-4" cx="100.26" cy="112.67" rx=".7" ry=".66"/>
  </g>
  <g id="scheme">
    <rect class="cls-8" x="41.43" y="15.89" width="22.68" height="11.34"/>
    <rect class="cls-8" x="64.11" y="15.89" width="22.68" height="11.34"/>
    <rect class="cls-7" x="32.93" y="15.89" width="8.5" height="11.34"/>
    <rect class="cls-7" x="86.78" y="15.89" width="8.5" height="11.34"/>
    <rect class="cls-8" x="41.43" y="27.23" width="22.68" height="11.34"/>
    <rect class="cls-8" x="64.11" y="27.23" width="22.68" height="11.34"/>
    <rect class="cls-7" x="32.93" y="27.23" width="8.5" height="11.34"/>
    <rect class="cls-7" x="86.78" y="27.23" width="8.5" height="11.34"/>
    <rect class="cls-8" x="41.43" y="38.39" width="22.68" height="11.34"/>
    <rect class="cls-8" x="64.11" y="38.39" width="22.68" height="11.34"/>
    <rect class="cls-7" x="32.93" y="38.39" width="8.5" height="11.34"/>
    <rect class="cls-7" x="86.78" y="38.39" width="8.5" height="11.34"/>
    <rect class="cls-8" x="41.43" y="49.73" width="22.68" height="11.34"/>
    <rect class="cls-8" x="64.11" y="49.73" width="22.68" height="11.34"/>
    <rect class="cls-7" x="32.93" y="49.73" width="8.5" height="11.34"/>
    <rect class="cls-7" x="86.78" y="49.73" width="8.5" height="11.34"/>
    <rect class="cls-8" x="41.43" y="60.89" width="22.68" height="11.34"/>
    <rect class="cls-8" x="64.11" y="60.89" width="22.68" height="11.34"/>
    <rect class="cls-7" x="32.93" y="60.89" width="8.5" height="11.34"/>
    <rect class="cls-7" x="86.78" y="60.89" width="8.5" height="11.34"/>
    <rect class="cls-8" x="41.43" y="72.23" width="22.68" height="11.34"/>
    <rect class="cls-8" x="64.11" y="72.23" width="22.68" height="11.34"/>
    <rect class="cls-7" x="32.93" y="72.23" width="8.5" height="11.34"/>
    <rect class="cls-7" x="86.78" y="72.23" width="8.5" height="11.34"/>
    <rect class="cls-8" x="41.43" y="83.56" width="22.68" height="11.34"/>
    <rect class="cls-8" x="64.11" y="83.56" width="22.68" height="11.34"/>
    <rect class="cls-7" x="32.93" y="83.56" width="8.5" height="11.34"/>
    <rect class="cls-7" x="86.78" y="83.56" width="8.5" height="11.34"/>
    <rect class="cls-8" x="41.43" y="94.9" width="22.68" height="11.34"/>
    <rect class="cls-8" x="64.11" y="94.9" width="22.68" height="11.34"/>
    <rect class="cls-7" x="32.93" y="94.9" width="8.5" height="11.34"/>
    <rect class="cls-7" x="86.78" y="94.9" width="8.5" height="11.34"/>
    <rect class="cls-8" x="41.43" y="106.24" width="22.68" height="11.34"/>
    <rect class="cls-8" x="64.11" y="106.24" width="22.68" height="11.34"/>
    <rect class="cls-7" x="32.93" y="106.24" width="8.5" height="11.34"/>
    <rect class="cls-7" x="86.78" y="106.24" width="8.5" height="11.34"/>
  </g>
  <g id="scheme_letters" data-name="scheme letters">
    <text class="cls-5" transform="translate(51.62 23.68)"><tspan x="0" y="0">-</tspan></text>
    <text class="cls-5" transform="translate(35.92 23.68)"><tspan x="0" y="0">1</tspan></text>
    <text class="cls-5" transform="translate(89.41 23.68)"><tspan x="0" y="0">2</tspan></text>
    <text class="cls-5" transform="translate(74.65 23.68)"><tspan x="0" y="0">-</tspan></text>
    <text class="cls-5" transform="translate(51.62 35.02)"><tspan x="0" y="0">-</tspan></text>
    <text class="cls-5" transform="translate(35.41 35.02) scale(.83 1)"><tspan x="0" y="0">3</tspan></text>
    <text class="cls-5" transform="translate(89.13 35.02)"><tspan x="0" y="0">4</tspan></text>
    <text class="cls-5" transform="translate(74.65 35.02)"><tspan x="0" y="0">-</tspan></text>
    <text class="cls-5" transform="translate(51.62 46.18)"><tspan x="0" y="0">-</tspan></text>
    <text class="cls-5" transform="translate(35.3 46.18)"><tspan x="0" y="0">5</tspan></text>
    <text class="cls-5" transform="translate(89.28 46.18)"><tspan x="0" y="0">6</tspan></text>
    <text class="cls-5" transform="translate(74.65 46.18)"><tspan x="0" y="0">-</tspan></text>
    <text class="cls-5" transform="translate(42.53 57.52)"><tspan x="0" y="0">+24В_1</tspan></text>
    <text class="cls-5" transform="translate(35.23 57.52)"><tspan x="0" y="0">7</tspan></text>
    <text class="cls-5" transform="translate(89.2 57.52)"><tspan x="0" y="0">8</tspan></text>
    <text class="cls-5" transform="translate(64.45 57.52)"><tspan x="0" y="0">+24В_2</tspan></text>
    <text class="cls-5" transform="translate(42.53 68.68)"><tspan x="0" y="0">+24В_1</tspan></text>
    <text class="cls-5" transform="translate(35.17 68.68)"><tspan x="0" y="0">9</tspan></text>
    <text class="cls-5" transform="translate(88.04 68.68)"><tspan x="0" y="0">10</tspan></text>
    <text class="cls-3" transform="translate(64.62 68.68)"><tspan x="0" y="0">+24В_2</tspan></text>
    <text class="cls-5" transform="translate(45.53 80.02)"><tspan x="0" y="0">GND</tspan></text>
    <text class="cls-5" transform="translate(34.84 80.02)"><tspan x="0" y="0">11</tspan></text>
    <text class="cls-5" transform="translate(88.32 80.02)"><tspan x="0" y="0">12</tspan></text>
    <text class="cls-5" transform="translate(68.56 80.02)"><tspan x="0" y="0">GND</tspan></text>
    <text class="cls-5" transform="translate(45.53 91.36)"><tspan x="0" y="0">GND</tspan></text>
    <text class="cls-5" transform="translate(34.23 91.36)"><tspan x="0" y="0">13</tspan></text>
    <text class="cls-5" transform="translate(88.04 91.36)"><tspan x="0" y="0">14</tspan></text>
    <text class="cls-5" transform="translate(68.56 91.36)"><tspan x="0" y="0">GND</tspan></text>
    <text class="cls-5" transform="translate(48.55 102.7)"><tspan x="0" y="0">FG</tspan></text>
    <text class="cls-5" transform="translate(34.22 102.7)"><tspan x="0" y="0">15</tspan></text>
    <text class="cls-5" transform="translate(88.2 102.7)"><tspan x="0" y="0">16</tspan></text>
    <text class="cls-5" transform="translate(71.58 102.7)"><tspan x="0" y="0">FG</tspan></text>
    <text class="cls-5" transform="translate(48.55 114.04)"><tspan x="0" y="0">FG</tspan></text>
    <text class="cls-5" transform="translate(34.15 114.04)"><tspan x="0" y="0">17</tspan></text>
    <text class="cls-5" transform="translate(88.11 114.04)"><tspan x="0" y="0">18</tspan></text>
    <text class="cls-5" transform="translate(71.58 114.04)"><tspan x="0" y="0">FG</tspan></text>
  </g>
</svg>