<?xml version="1.0" encoding="UTF-8"?>
<svg xmlns="http://www.w3.org/2000/svg" viewBox="0 0 127.56 141.73">
  <defs>
    <style>
      .cls-1 {
        letter-spacing: 0em;
      }

      .cls-1, .cls-2, .cls-3, .cls-4, .cls-5 {
        fill: #767576;
      }

      .cls-1, .cls-2, .cls-3, .cls-5 {
        font-family: MontserratRoman-Regular, Montserrat;
        font-variation-settings: 'wght' 400;
      }

      .cls-1, .cls-2, .cls-5 {
        font-size: 6px;
      }

      .cls-2 {
        letter-spacing: 0em;
      }

      .cls-6 {
        fill: none;
      }

      .cls-6, .cls-7, .cls-8 {
        stroke: #767576;
        stroke-miterlimit: 10;
        stroke-width: .5px;
      }

      .cls-3 {
        font-size: 5.92px;
      }

      .cls-7 {
        fill: #f7941d;
      }

      .cls-8 {
        fill: #bcbec0;
      }
    </style>
  </defs>
  <g id="scheme_w" data-name="scheme w">
    <polyline class="cls-6" points="14.29 27.44 7.3 27.44 7.3 15.31 98.37 15.47 98.37 34.57 106.02 34.58"/>
    <polyline class="cls-6" points="69.17 26.65 81.96 26.65 81.96 38.55 95.24 38.55"/>
    <polyline class="cls-6" points="64.63 39.12 78.43 39.12 78.43 83.34 106.02 83.34"/>
    <line class="cls-6" x1="88.44" y1="117.35" x2="73.13" y2="117.35"/>
    <line class="cls-6" x1="10.2" y1="39.12" x2="4.54" y2="39.12"/>
    <line class="cls-6" x1="4.54" y1="12.47" x2="4.54" y2="39.12"/>
    <line class="cls-6" x1="4.54" y1="12.47" x2="84.47" y2="12.47"/>
    <line class="cls-6" x1="84.47" y1="61.23" x2="84.47" y2="12.47"/>
    <line class="cls-6" x1="94.68" y1="61.23" x2="84.47" y2="61.23"/>
    <line class="cls-6" x1="10.77" y1="117.35" x2="7.37" y2="117.35"/>
    <line class="cls-6" x1="7.37" y1="117.35" x2="7.37" y2="126.99"/>
    <line class="cls-6" x1="7.37" y1="126.99" x2="83.91" y2="126.99"/>
    <line class="cls-6" x1="83.91" y1="126.99" x2="83.91" y2="106.02"/>
    <line class="cls-6" x1="83.91" y1="106.02" x2="94.67" y2="106.02"/>
    <line class="cls-6" x1="68.6" y1="134.93" x2="68.6" y2="126.99"/>
    <line class="cls-6" x1="68.6" y1="134.65" x2="77.39" y2="134.65"/>
    <line class="cls-6" x1="77.61" y1="138.9" x2="77.61" y2="130.39"/>
    <line class="cls-6" x1="79.74" y1="132.52" x2="79.74" y2="136.77"/>
    <line class="cls-6" x1="88.44" y1="134.65" x2="79.94" y2="134.65"/>
    <line class="cls-6" x1="94.68" y1="26.65" x2="88.44" y2="26.65"/>
    <line class="cls-6" x1="94.68" y1="49.32" x2="88.44" y2="49.32"/>
    <line class="cls-6" x1="94.68" y1="71.43" x2="88.44" y2="71.43"/>
    <line class="cls-6" x1="94.68" y1="94.68" x2="88.44" y2="94.68"/>
    <line class="cls-6" x1="94.68" y1="117.35" x2="88.44" y2="117.35"/>
    <line class="cls-6" x1="88.44" y1="26.65" x2="88.44" y2="134.93"/>
  </g>
  <g id="_Точки" data-name="Точки">
    <circle class="cls-4" cx="88.44" cy="49.32" r=".57"/>
    <circle class="cls-4" cx="88.44" cy="71.43" r=".57"/>
    <circle class="cls-4" cx="88.44" cy="94.68" r=".57"/>
    <circle class="cls-4" cx="88.44" cy="117.35" r=".57"/>
    <circle class="cls-4" cx="68.6" cy="126.99" r=".57"/>
  </g>
  <g id="scheme">
    <rect class="cls-8" x="42.02" y="21.44" width="22.68" height="11.34"/>
    <rect class="cls-7" x="10.84" y="21.44" width="8.5" height="11.34"/>
    <rect class="cls-7" x="64.7" y="21.44" width="8.5" height="11.34"/>
    <rect class="cls-8" x="42.02" y="32.78" width="22.68" height="11.34"/>
    <rect class="cls-7" x="10.84" y="32.78" width="8.5" height="11.34"/>
    <rect class="cls-7" x="64.7" y="32.78" width="8.5" height="11.34"/>
    <rect class="cls-8" x="42.02" y="43.94" width="22.68" height="11.34"/>
    <rect class="cls-7" x="10.84" y="43.94" width="8.5" height="11.34"/>
    <rect class="cls-7" x="64.7" y="43.94" width="8.5" height="11.34"/>
    <rect class="cls-8" x="42.02" y="55.28" width="22.68" height="11.34"/>
    <rect class="cls-7" x="10.84" y="55.28" width="8.5" height="11.34"/>
    <rect class="cls-7" x="64.7" y="55.28" width="8.5" height="11.34"/>
    <rect class="cls-8" x="42.02" y="66.44" width="22.68" height="11.34"/>
    <rect class="cls-7" x="10.84" y="66.44" width="8.5" height="11.34"/>
    <rect class="cls-7" x="64.7" y="66.44" width="8.5" height="11.34"/>
    <rect class="cls-8" x="42.02" y="77.78" width="22.68" height="11.34"/>
    <rect class="cls-7" x="10.84" y="77.78" width="8.5" height="11.34"/>
    <rect class="cls-7" x="64.7" y="77.78" width="8.5" height="11.34"/>
    <rect class="cls-8" x="42.02" y="89.11" width="22.68" height="11.34"/>
    <rect class="cls-7" x="10.84" y="89.11" width="8.5" height="11.34"/>
    <rect class="cls-7" x="64.7" y="89.11" width="8.5" height="11.34"/>
    <rect class="cls-8" x="42.02" y="100.45" width="22.68" height="11.34"/>
    <rect class="cls-7" x="10.84" y="100.45" width="8.5" height="11.34"/>
    <rect class="cls-7" x="64.7" y="100.45" width="8.5" height="11.34"/>
    <rect class="cls-8" x="42.02" y="111.79" width="22.68" height="11.34"/>
    <rect class="cls-7" x="10.84" y="111.79" width="8.5" height="11.34"/>
    <rect class="cls-7" x="64.7" y="111.79" width="8.5" height="11.34"/>
    <rect class="cls-8" x="19.35" y="21.44" width="22.68" height="11.34"/>
    <rect class="cls-8" x="19.35" y="32.78" width="22.68" height="11.34"/>
    <rect class="cls-8" x="19.35" y="43.94" width="22.68" height="11.34"/>
    <rect class="cls-8" x="19.35" y="55.28" width="22.68" height="11.34"/>
    <rect class="cls-8" x="19.35" y="66.44" width="22.68" height="11.34"/>
    <rect class="cls-8" x="19.35" y="77.78" width="22.68" height="11.34"/>
    <rect class="cls-8" x="19.35" y="89.11" width="22.68" height="11.34"/>
    <rect class="cls-8" x="19.35" y="100.45" width="22.68" height="11.34"/>
    <rect class="cls-8" x="19.35" y="111.79" width="22.68" height="11.34"/>
    <rect class="cls-8" x="94.68" y="9.64" width="22.68" height="11.34"/>
    <rect class="cls-8" x="94.68" y="20.98" width="22.68" height="11.34"/>
    <rect class="cls-8" x="94.68" y="32.14" width="22.68" height="11.34"/>
    <rect class="cls-8" x="94.68" y="43.48" width="22.68" height="11.34"/>
    <rect class="cls-8" x="94.68" y="54.81" width="22.68" height="11.34"/>
    <rect class="cls-8" x="94.68" y="66.15" width="22.68" height="11.34"/>
    <rect class="cls-8" x="94.68" y="77.49" width="22.68" height="11.34"/>
    <rect class="cls-8" x="94.68" y="111.69" width="22.68" height="11.34"/>
    <rect class="cls-7" x="117.35" y="9.64" width="8.5" height="113.39"/>
    <rect class="cls-8" x="94.68" y="89.01" width="22.68" height="11.34"/>
    <rect class="cls-8" x="94.68" y="100.35" width="22.68" height="11.34"/>
  </g>
  <g id="scheme_letters" data-name="scheme letters">
    <text class="cls-5" transform="translate(23.55 29.37)"><tspan x="0" y="0">PUL1</tspan></text>
    <text class="cls-5" transform="translate(13.83 29.23)"><tspan x="0" y="0">1</tspan></text>
    <text class="cls-5" transform="translate(67.32 29.23)"><tspan x="0" y="0">2</tspan></text>
    <text class="cls-5" transform="translate(47.08 29.23)"><tspan x="0" y="0">DIR1</tspan></text>
    <text class="cls-5" transform="translate(23.25 40.71)"><tspan x="0" y="0">ENA1</tspan></text>
    <text class="cls-5" transform="translate(13.33 40.57) scale(.83 1)"><tspan x="0" y="0">3</tspan></text>
    <text class="cls-3" transform="translate(66.93 41.7)"><tspan x="0" y="0">4</tspan></text>
    <text class="cls-5" transform="translate(45.85 40.57)"><tspan x="0" y="0">ALM1</tspan></text>
    <text class="cls-5" transform="translate(22.93 51.87)"><tspan x="0" y="0">PUL2</tspan></text>
    <text class="cls-5" transform="translate(13.22 51.73)"><tspan x="0" y="0">5</tspan></text>
    <text class="cls-3" transform="translate(67.08 52.71)"><tspan x="0" y="0">6</tspan></text>
    <text class="cls-5" transform="translate(46.46 51.73)"><tspan x="0" y="0">DIR2</tspan></text>
    <text class="cls-5" transform="translate(22.63 63.21)"><tspan x="0" y="0">ENA2</tspan></text>
    <text class="cls-5" transform="translate(13.15 63.07)"><tspan x="0" y="0">7</tspan></text>
    <text class="cls-3" transform="translate(66.99 63.89)"><tspan x="0" y="0">8</tspan></text>
    <text class="cls-3" transform="translate(45.42 63.89)"><tspan x="0" y="0">ALM2</tspan></text>
    <text class="cls-5" transform="translate(22.94 74.37)"><tspan x="0" y="0">PUL3</tspan></text>
    <text class="cls-5" transform="translate(13.09 74.23)"><tspan x="0" y="0">9</tspan></text>
    <text class="cls-3" transform="translate(65.86 74.89)"><tspan x="0" y="0">10</tspan></text>
    <text class="cls-3" transform="translate(46.64 74.89)"><tspan x="0" y="0">DIR3</tspan></text>
    <text class="cls-5" transform="translate(22.64 85.71)"><tspan x="0" y="0">ENA3</tspan></text>
    <text class="cls-5" transform="translate(12.75 85.57)"><tspan x="0" y="0">11</tspan></text>
    <text class="cls-3" transform="translate(66.13 86.07)"><tspan x="0" y="0">12</tspan></text>
    <text class="cls-3" transform="translate(45.43 86.07)"><tspan x="0" y="0">ALM3</tspan></text>
    <text class="cls-5" transform="translate(22.65 97.05)"><tspan x="0" y="0">PUL4</tspan></text>
    <text class="cls-5" transform="translate(12.14 96.91)"><tspan x="0" y="0">13</tspan></text>
    <text class="cls-3" transform="translate(65.86 97.25)"><tspan x="0" y="0">14</tspan></text>
    <text class="cls-3" transform="translate(46.36 97.25)"><tspan x="0" y="0">DIR4</tspan></text>
    <text class="cls-5" transform="translate(22.35 108.39)"><tspan x="0" y="0">ENA4</tspan></text>
    <text class="cls-5" transform="translate(12.14 108.25)"><tspan x="0" y="0">15</tspan></text>
    <text class="cls-3" transform="translate(66.01 108.43)"><tspan x="0" y="0">16</tspan></text>
    <text class="cls-3" transform="translate(45.14 108.43)"><tspan x="0" y="0">ALM4</tspan></text>
    <text class="cls-5" transform="translate(27.11 119.73)"><tspan x="0" y="0">V+</tspan></text>
    <text class="cls-5" transform="translate(12.07 119.59)"><tspan x="0" y="0">17</tspan></text>
    <text class="cls-3" transform="translate(65.93 119.61)"><tspan x="0" y="0">18</tspan></text>
    <text class="cls-3" transform="translate(46.65 119.61)"><tspan x="0" y="0">GND</tspan></text>
    <text/>
    <text class="cls-5" transform="translate(98.35 17.43)"><tspan x="0" y="0">PUL+</tspan></text>
    <text class="cls-3" transform="translate(99.1 29.59)"><tspan x="0" y="0">PUL-</tspan></text>
    <text class="cls-3" transform="translate(99.26 40.59)"><tspan x="0" y="0">DIR+</tspan></text>
    <text class="cls-3" transform="translate(99.84 51.77)"><tspan x="0" y="0">DIR-</tspan></text>
    <text class="cls-3" transform="translate(98.23 62.95)"><tspan x="0" y="0">ENA+</tspan></text>
    <text class="cls-3" transform="translate(98.81 74.13)"><tspan x="0" y="0">ENA-</tspan></text>
    <text class="cls-3" transform="translate(98.05 85.31)"><tspan x="0" y="0">ALM+</tspan></text>
    <text/>
    <text/>
    <text class="cls-3" transform="translate(98.62 97.14)"><tspan x="0" y="0">ALM-</tspan></text>
    <text class="cls-3" transform="translate(102.67 108.32)"><tspan x="0" y="0">V+</tspan></text>
    <text class="cls-5" transform="translate(123.59 92.01) rotate(-90)"><tspan x="0" y="0">Драйвер двигателя</tspan></text>
    <text class="cls-3" transform="translate(99.31 119.5)"><tspan x="0" y="0">GND</tspan></text>
    <text class="cls-2" transform="translate(75.25 129.83) rotate(-180)"><tspan x="0" y="0">+</tspan></text>
    <text class="cls-1" transform="translate(83.96 129.86) rotate(-180)"><tspan x="0" y="0">-</tspan></text>
  </g>
</svg>